# xmcd CD database file
#
# Track frame offsets:
#	150
#	8340
#	29420
#	50830
#	74500
#	92747
#	118637
#	133480
#	158612
#	177007
#	199497
#	220840
#	239362
#	260797
#
# Disc length: 3999 seconds
#
# Revision: 0
# Processed by: cddbd v1.5.1PL0 Copyright (c) Steve Scherf et al.
# Submitted via: CDex 1.50
#
DISCID=ce0f9d0e
DTITLE=m.c.A・T - Returns !
DYEAR=2004
DGENRE=J-Pop
TTITLE0=Returns! Intro
TTITLE1=Bomb A Head! Returns! (Album Version) feat. DA PUMP
TTITLE2=Shinin' My "Hard" Life feat. LIV
TTITLE3=Funky Gutsman's Spirit
TTITLE4=3 Steps-2 Steps
TTITLE5=Thunder Party ? feat. 大黒摩季
TTITLE6=Accha! Asia
TTITLE7=超Super Happy feat. Psycho le Cemu
TTITLE8=「A」〜La French mix〜 feat. 浜崎あゆみ
TTITLE9=We can't stop the music ver. A feat. DA PUMP
TTITLE10=Coffee Scotch Mermaid and Me
TTITLE11=Funk Tank feat. 島谷ひとみ
TTITLE12=She's just a Woman feat. 甲斐よしひろ
TTITLE13=Young Naked Eyes
EXTD=YEAR: 2004
EXTT0=
EXTT1=
EXTT2=
EXTT3=
EXTT4=
EXTT5=
EXTT6=
EXTT7=
EXTT8=
EXTT9=
EXTT10=
EXTT11=
EXTT12=
EXTT13=
PLAYORDER=
